<svg width="27" height="28" viewBox="0 0 27 28" fill="none" xmlns="http://www.w3.org/2000/svg">
<path fill-rule="evenodd" clip-rule="evenodd" d="M24.7421 8.12738L23.9122 6.68726C23.2101 5.4687 21.6542 5.04833 20.434 5.74752V5.74752C19.8531 6.08969 19.16 6.18677 18.5075 6.01735C17.855 5.84793 17.2967 5.42592 16.9557 4.84439C16.7363 4.47476 16.6184 4.05376 16.614 3.62395V3.62395C16.6338 2.93486 16.3738 2.2671 15.8933 1.77279C15.4128 1.27848 14.7526 0.999716 14.0633 1H12.3913C11.7159 0.999992 11.0683 1.26912 10.5919 1.74783C10.1155 2.22653 9.84948 2.87536 9.85273 3.55072V3.55072C9.83271 4.94513 8.69656 6.06498 7.30201 6.06484C6.8722 6.06037 6.45119 5.94249 6.08156 5.72311V5.72311C4.86133 5.02392 3.3054 5.44429 2.6033 6.66285L1.71238 8.12738C1.01113 9.34442 1.42579 10.8994 2.63992 11.6056V11.6056C3.42912 12.0613 3.91529 12.9034 3.91529 13.8146C3.91529 14.7259 3.42912 15.568 2.63992 16.0236V16.0236C1.42733 16.7251 1.01222 18.2763 1.71238 19.4897V19.4897L2.55449 20.942C2.88345 21.5356 3.43539 21.9736 4.08818 22.1592C4.74096 22.3447 5.44077 22.2624 6.03275 21.9306V21.9306C6.61469 21.591 7.30817 21.498 7.95904 21.6722C8.60991 21.8463 9.16423 22.2733 9.4988 22.8581C9.71818 23.2278 9.83606 23.6488 9.84053 24.0786V24.0786C9.84053 25.4873 10.9825 26.6293 12.3913 26.6293H14.0633C15.4672 26.6293 16.6073 25.4947 16.614 24.0908V24.0908C16.6107 23.4133 16.8784 22.7626 17.3575 22.2835C17.8365 21.8045 18.4872 21.5368 19.1647 21.54C19.5935 21.5515 20.0128 21.6689 20.3852 21.8818V21.8818C21.6022 22.583 23.1571 22.1684 23.8634 20.9542V20.9542L24.7421 19.4897C25.0823 18.9059 25.1756 18.2106 25.0015 17.5577C24.8274 16.9049 24.4003 16.3484 23.8146 16.0114V16.0114C23.2289 15.6745 22.8018 15.118 22.6277 14.4652C22.4536 13.8123 22.5469 13.117 22.8871 12.5332C23.1082 12.147 23.4284 11.8268 23.8146 11.6056V11.6056C25.0214 10.8998 25.4351 9.35389 24.7421 8.13959V8.13959V8.12738Z" stroke="black" stroke-width="2" stroke-linecap="round" stroke-linejoin="round"/>
<circle cx="13.2334" cy="13.8146" r="3.51487" stroke="black" stroke-width="2" stroke-linecap="round" stroke-linejoin="round"/>
</svg>
