<svg width="341" height="213" viewBox="0 0 341 213" fill="none" xmlns="http://www.w3.org/2000/svg">
<g clip-path="url(#clip0_612_162)">
<path d="M89.0594 129.659C124.864 129.659 153.889 100.634 153.889 64.8294C153.889 29.0251 124.864 0 89.0594 0C53.2551 0 24.23 29.0251 24.23 64.8294C24.23 100.634 53.2551 129.659 89.0594 129.659Z" fill="#F2F2F2"/>
<path d="M0 15.5659C0 39.1534 14.7976 58.2401 33.0845 58.2401L0 15.5659Z" fill="#2F2E41"/>
<path d="M33.0845 58.2401C33.0845 34.3875 49.5977 15.0864 70.0049 15.0864L33.0845 58.2401Z" fill="black"/>
<path d="M11.9871 17.7041C11.9871 40.1097 21.4232 58.2401 33.0844 58.2401L11.9871 17.7041Z" fill="black"/>
<path d="M33.0845 58.2401C33.0845 27.7619 52.1712 3.09924 75.7587 3.09924L33.0845 58.2401Z" fill="#2F2E41"/>
<path d="M26.1245 58.541C26.1245 58.541 30.8164 58.3964 32.2305 57.3896C33.6445 56.3827 39.4478 55.1803 39.7986 56.7952C40.1494 58.4101 46.8497 64.8268 41.5526 64.8695C36.2554 64.9123 29.2443 64.0444 27.833 63.1847C26.4217 62.3251 26.1245 58.541 26.1245 58.541Z" fill="#A8A8A8"/>
<path opacity="0.2" d="M41.6471 64.3074C36.3499 64.3501 29.3388 63.4823 27.9275 62.6226C26.8527 61.9679 26.4245 59.6187 26.2811 58.5349C26.1819 58.5391 26.1245 58.5409 26.1245 58.5409C26.1245 58.5409 26.4217 62.325 27.833 63.1847C29.2443 64.0444 36.2554 64.9122 41.5526 64.8695C43.0816 64.8572 43.6098 64.3131 43.5808 63.5074C43.3684 63.9942 42.7852 64.2982 41.6471 64.3074Z" fill="black"/>
<path d="M60.4494 136.945C91.8832 136.945 117.365 133.479 117.365 129.202C117.365 124.926 91.8832 121.459 60.4494 121.459C29.0156 121.459 3.53345 124.926 3.53345 129.202C3.53345 133.479 29.0156 136.945 60.4494 136.945Z" fill="#3F3D56"/>
<path opacity="0.1" d="M60.4494 135.703C86.8403 135.703 108.234 132.793 108.234 129.202C108.234 125.612 86.8403 122.701 60.4494 122.701C34.0584 122.701 12.6643 125.612 12.6643 129.202C12.6643 132.793 34.0584 135.703 60.4494 135.703Z" fill="black"/>
<path d="M254.633 212.75C302.204 212.75 340.768 207.504 340.768 201.032C340.768 194.56 302.204 189.314 254.633 189.314C207.062 189.314 168.498 194.56 168.498 201.032C168.498 207.504 207.062 212.75 254.633 212.75Z" fill="#3F3D56"/>
<path d="M94.5382 203.506C123.114 203.506 146.28 200.354 146.28 196.467C146.28 192.579 123.114 189.427 94.5382 189.427C65.962 189.427 42.7964 192.579 42.7964 196.467C42.7964 200.354 65.962 203.506 94.5382 203.506Z" fill="#3F3D56"/>
<path d="M140.801 190.531C168.194 197.532 220.849 181.401 226.632 163.139" stroke="#2F2E41" stroke-width="2" stroke-miterlimit="10"/>
<path d="M94.2336 78.8301C94.2336 78.8301 133.801 67.873 136.236 103.179C138.671 138.485 103.669 148.529 131.062 155.53" stroke="#2F2E41" stroke-width="2" stroke-miterlimit="10"/>
<path d="M56.0063 163.529C56.0063 163.529 67.8985 160.236 68.6304 170.848C69.3622 181.459 58.8422 184.478 67.0752 186.582" stroke="#2F2E41" stroke-width="2" stroke-miterlimit="10"/>
<path d="M237.009 171.43L234.612 186.738C234.612 186.738 222.808 193.008 231.107 193.193C239.407 193.377 278.507 193.193 278.507 193.193C278.507 193.193 286.069 193.193 274.08 186.553L271.683 170.507L237.009 171.43Z" fill="#2F2E41"/>
<path opacity="0.1" d="M229.438 193.027C231.323 191.35 234.612 189.602 234.612 189.602L237.009 174.294L271.683 174.327L274.08 189.418C276.876 190.966 278.608 192.153 279.621 193.063C281.161 192.712 282.843 191.406 274.08 186.553L271.683 170.507L237.009 171.43L234.612 186.738C234.612 186.738 224.693 192.008 229.438 193.027Z" fill="black"/>
<path d="M326.777 64.7346H181.546C178.513 64.7346 176.054 67.1937 176.054 70.2271V168.058C176.054 171.092 178.513 173.551 181.546 173.551H326.777C329.81 173.551 332.269 171.092 332.269 168.058V70.2271C332.269 67.1937 329.81 64.7346 326.777 64.7346Z" fill="#2F2E41"/>
<path d="M327.013 70.5443H181.31V152.064H327.013V70.5443Z" fill="#3F3D56"/>
<path d="M254.161 68.8844C254.671 68.8844 255.084 68.4715 255.084 67.9622C255.084 67.4529 254.671 67.04 254.161 67.04C253.652 67.04 253.239 67.4529 253.239 67.9622C253.239 68.4715 253.652 68.8844 254.161 68.8844Z" fill="#F2F2F2"/>
<path d="M332.269 158.519V168.058C332.269 168.779 332.127 169.494 331.851 170.16C331.575 170.827 331.171 171.432 330.661 171.942C330.151 172.452 329.545 172.857 328.879 173.133C328.212 173.409 327.498 173.551 326.777 173.551H181.546C180.825 173.551 180.111 173.409 179.444 173.133C178.778 172.857 178.172 172.452 177.662 171.942C177.152 171.432 176.748 170.827 176.472 170.16C176.196 169.494 176.054 168.779 176.054 168.058V158.519H332.269Z" fill="#2F2E41"/>
<path d="M294.921 203.152V204.997H195.696V203.521L195.832 203.152L198.278 196.513H292.892L294.921 203.152Z" fill="#2F2E41"/>
<path d="M333.107 201.347C332.926 202.119 332.243 202.935 330.702 203.706C325.169 206.472 313.918 202.968 313.918 202.968C313.918 202.968 305.25 201.492 305.25 197.619C305.493 197.453 305.747 197.302 306.01 197.167C308.336 195.937 316.049 192.9 329.725 197.296C330.732 197.612 331.632 198.202 332.324 198.999C332.879 199.648 333.313 200.471 333.107 201.347Z" fill="#2F2E41"/>
<path opacity="0.1" d="M333.107 201.347C326.334 203.942 320.298 204.135 314.102 199.832C310.978 197.663 308.14 197.127 306.01 197.167C308.336 195.937 316.049 192.9 329.725 197.296C330.732 197.612 331.632 198.202 332.324 198.999C332.879 199.648 333.313 200.471 333.107 201.347Z" fill="black"/>
<path d="M324.615 199.832C325.939 199.832 327.013 199.502 327.013 199.095C327.013 198.687 325.939 198.357 324.615 198.357C323.291 198.357 322.218 198.687 322.218 199.095C322.218 199.502 323.291 199.832 324.615 199.832Z" fill="#F2F2F2"/>
<path d="M254.161 169.585C256.097 169.585 257.666 168.016 257.666 166.081C257.666 164.146 256.097 162.577 254.161 162.577C252.226 162.577 250.657 164.146 250.657 166.081C250.657 168.016 252.226 169.585 254.161 169.585Z" fill="#F2F2F2"/>
<path opacity="0.1" d="M294.921 203.152V204.997H195.696V203.521L195.832 203.152H294.921Z" fill="black"/>
<path d="M96.3642 48.3938H33.0566V122.05H96.3642V48.3938Z" fill="#2F2E41"/>
<path d="M102.756 41.0891H26.665V67.2643H102.756V41.0891Z" fill="#3F3D56"/>
<path d="M102.756 72.1341H26.665V98.3094H102.756V72.1341Z" fill="#3F3D56"/>
<path d="M102.756 103.179H26.665V129.354H102.756V103.179Z" fill="#3F3D56"/>
<path opacity="0.4" d="M87.5378 45.6545H82.668V50.5243H87.5378V45.6545Z" fill="black"/>
<path opacity="0.8" d="M94.538 45.6545H89.6682V50.5243H94.538V45.6545Z" fill="black"/>
<path d="M101.538 45.6545H96.6685V50.5243H101.538V45.6545Z" fill="black"/>
<path opacity="0.4" d="M87.5378 76.3952H82.668V81.265H87.5378V76.3952Z" fill="black"/>
<path opacity="0.8" d="M94.538 76.3952H89.6682V81.265H94.538V76.3952Z" fill="black"/>
<path d="M101.538 76.3952H96.6685V81.265H101.538V76.3952Z" fill="black"/>
<path opacity="0.4" d="M87.5378 107.136H82.668V112.006H87.5378V107.136Z" fill="black"/>
<path opacity="0.8" d="M94.538 107.136H89.6682V112.006H94.538V107.136Z" fill="black"/>
<path d="M101.538 107.136H96.6685V112.006H101.538V107.136Z" fill="black"/>
<path d="M96.3643 187.792C109.644 187.792 120.409 177.027 120.409 163.747C120.409 150.468 109.644 139.703 96.3643 139.703C83.0848 139.703 72.3196 150.468 72.3196 163.747C72.3196 177.027 83.0848 187.792 96.3643 187.792Z" fill="#2F2E41"/>
<path d="M92.7119 182.618H85.4072V195.706H92.7119V182.618Z" fill="#2F2E41"/>
<path d="M107.321 182.618H100.017V195.706H107.321V182.618Z" fill="#2F2E41"/>
<path d="M91.4945 198.141C94.8564 198.141 97.5818 197.119 97.5818 195.858C97.5818 194.597 94.8564 193.575 91.4945 193.575C88.1326 193.575 85.4072 194.597 85.4072 195.858C85.4072 197.119 88.1326 198.141 91.4945 198.141Z" fill="#2F2E41"/>
<path d="M106.104 197.836C109.466 197.836 112.191 196.814 112.191 195.553C112.191 194.293 109.466 193.271 106.104 193.271C102.742 193.271 100.017 194.293 100.017 195.553C100.017 196.814 102.742 197.836 106.104 197.836Z" fill="#2F2E41"/>
<path d="M96.9729 165.878C101.512 165.878 105.191 162.199 105.191 157.66C105.191 153.122 101.512 149.442 96.9729 149.442C92.4344 149.442 88.7551 153.122 88.7551 157.66C88.7551 162.199 92.4344 165.878 96.9729 165.878Z" fill="white"/>
<path d="M96.9729 160.399C98.4858 160.399 99.7122 159.173 99.7122 157.66C99.7122 156.147 98.4858 154.921 96.9729 154.921C95.4601 154.921 94.2336 156.147 94.2336 157.66C94.2336 159.173 95.4601 160.399 96.9729 160.399Z" fill="#3F3D56"/>
<path d="M73.04 141.387C71.0985 132.692 77.3047 123.906 86.902 121.763C96.4992 119.62 105.853 124.931 107.795 133.626C109.736 142.321 103.376 145.528 93.7785 147.671C84.1813 149.814 74.9815 150.082 73.04 141.387Z" fill="black"/>
<path d="M118.916 158.952C125.02 156.339 129.303 152.668 128.483 150.752C127.663 148.835 122.05 149.4 115.946 152.012C109.841 154.625 105.558 158.296 106.378 160.213C107.198 162.129 112.812 161.564 118.916 158.952Z" fill="#2F2E41"/>
<path d="M73.8701 175.083C79.9743 172.47 84.2578 168.799 83.4376 166.883C82.6174 164.967 77.0041 165.531 70.9 168.144C64.7958 170.756 60.5123 174.428 61.3325 176.344C62.1527 178.26 67.7659 177.696 73.8701 175.083Z" fill="#2F2E41"/>
<path d="M110.365 170.748C110.365 173.101 104.306 177.748 97.5818 177.748C90.858 177.748 84.4941 173.406 84.4941 171.052C84.4941 168.699 90.858 169.226 97.5818 169.226C104.306 169.226 110.365 168.395 110.365 170.748Z" fill="white"/>
</g>
<defs>
<clipPath id="clip0_612_162">
<rect width="340.768" height="212.75" fill="white"/>
</clipPath>
</defs>
</svg>
